<svg width="880.6999999999999px" height="122px" xmlns="http://www.w3.org/2000/svg" viewBox="-190.34999999999997 14 880.6999999999999 122" style="background: rgba(0, 0, 0, 0);" preserveAspectRatio="xMidYMid"><defs><filter id="editing-extrude-glow"><feFlood flood-color="#333333" result="flood-1"></feFlood><feMorphology operator="erode" radius="1" in="SourceAlpha" result="erode"></feMorphology><feComposite operator="in" in="flood-1" in2="erode" result="comp1"></feComposite><feConvolveMatrix order="3,3" divisor="1" in="comp1" result="convolve" kernelMatrix="0 0 0 1 1 1 0 0 0"></feConvolveMatrix><feOffset dx="-3" dy="0" in="convolve" result="extrude"></feOffset><feComposite operator="in" in="flood-1" in2="extrude" result="comp-extrude"></feComposite><feFlood flood-color="#000000" result="flood-2"></feFlood><feComposite operator="in" in="flood-2" in2="SourceAlpha" result="comp2"></feComposite><feMorphology operator="dilate" radius="1" in="comp2" result="dilate"></feMorphology><feOffset dx="-4.5" dy="0" in="dilate" result="offset"></feOffset><feGaussianBlur in="offset" stdDeviation="5.8" result="blur"></feGaussianBlur><feComponentTransfer in="blur" result="shadow"><feFuncA type="linear" slope="0.8" intercept="-0.2"></feFuncA></feComponentTransfer><feMerge><feMergeNode in="shadow"></feMergeNode><feMergeNode in="comp-extrude"></feMergeNode><feMergeNode in="SourceGraphic"></feMergeNode></feMerge></filter></defs><g filter="url(#editing-extrude-glow)"><g transform="translate(-66.61002111434937, 104.76000022888184)"><path d="M2.69-39.68L2.69-39.68L2.69-39.68Q3.58-41.47 5.54-42.46L5.54-42.46L5.54-42.46Q7.49-43.46 10.18-43.46L10.18-43.46L10.18-43.46Q14.40-43.46 16.93-40.42L16.93-40.42L16.93-40.42Q19.46-37.38 19.46-30.72L19.46-30.72L19.46-7.87L34.11-42.18L41.66-42.18L43.39-9.79L43.20-7.94L58.43-42.18L67.20-42.18L46.72 0L33.09 0L31.81-19.46L23.36 0L7.94 0L6.02-30.72L6.02-30.72Q5.82-34.18 4.90-36.45L4.90-36.45L4.90-36.45Q3.97-38.72 2.69-39.68ZM77.31 1.28L77.31 1.28L77.31 1.28Q63.23 1.28 63.23-11.97L63.23-11.97L63.23-11.97Q63.23-21.38 68.42-27.46L68.42-27.46L68.42-27.46Q73.92-33.92 83.46-33.92L83.46-33.92L83.46-33.92Q90.37-33.92 93.89-30.72L93.89-30.72L93.89-30.72Q97.41-27.52 97.41-20.80L97.41-20.80L97.41-20.80Q97.41-10.56 91.90-4.61L91.90-4.61L91.90-4.61Q86.53 1.28 77.31 1.28ZM78.98-26.56L78.98-26.56L78.98-26.56Q78.21-24.83 77.60-22.24L77.60-22.24L77.60-22.24Q76.99-19.65 76.22-15.55L76.22-15.55L76.22-15.55Q75.46-11.46 75.46-6.40L75.46-6.40L75.46-6.40Q75.46-4.74 76-3.65L76-3.65L76-3.65Q76.54-2.56 78.02-2.56L78.02-2.56L78.02-2.56Q79.49-2.56 80.42-3.26L80.42-3.26L80.42-3.26Q81.34-3.97 82.05-5.63L82.05-5.63L82.05-5.63Q83.33-8.58 84.35-14.05L84.35-14.05L84.35-14.05Q85.38-19.52 85.47-21.89L85.47-21.89L85.47-21.89Q85.57-24.26 85.57-26.02L85.57-26.02L85.57-26.02Q85.57-27.78 85.06-28.93L85.06-28.93L85.06-28.93Q84.54-30.08 83.10-30.08L83.10-30.08L83.10-30.08Q81.66-30.08 80.70-29.18L80.70-29.18L80.70-29.18Q79.74-28.29 78.98-26.56ZM121.22-17.98L121.22-17.98L121.22-17.98Q123.52-22.08 123.52-26.24L123.52-26.24L123.52-26.24Q123.52-28.99 121.54-28.99L121.54-28.99L121.54-28.99Q120-28.99 118.40-26.37L118.40-26.37L118.40-26.37Q116.74-23.74 116.22-20.35L116.22-20.35L112.90 0L99.65 1.28L106.18-32.64L116.74-33.92L115.58-27.46L115.58-27.46Q118.72-33.92 125.76-33.92L125.76-33.92L125.76-33.92Q129.47-33.92 131.49-32L131.49-32L131.49-32Q133.50-30.08 133.50-26.14L133.50-26.14L133.50-26.14Q133.50-22.21 130.91-19.71L130.91-19.71L130.91-19.71Q128.32-17.22 123.90-17.22L123.90-17.22L123.90-17.22Q121.98-17.22 121.22-17.98ZM151.04-30.34L151.04-30.34L151.04-30.34Q154.50-33.92 161.79-33.92L161.79-33.92L161.79-33.92Q165.82-33.92 168.03-31.78L168.03-31.78L168.03-31.78Q170.24-29.63 170.24-25.70L170.24-25.70L170.24-25.70Q170.24-21.76 168.03-18.98L168.03-18.98L168.03-18.98Q165.82-16.19 161.73-15.04L161.73-15.04L161.73-15.04Q162.05-13.76 162.50-12.42L162.50-12.42L163.39-9.86L163.39-9.86Q164.61-6.59 165.57-5.44L165.57-5.44L165.57-5.44Q166.53-4.29 167.81-3.90L167.81-3.90L167.81-3.90Q167.10-1.28 164.54 0.13L164.54 0.13L164.54 0.13Q162.50 1.28 159.68 1.28L159.68 1.28L159.68 1.28Q151.42 1.28 150.34-11.46L150.34-11.46L150.34-11.46Q150.14-13.25 150.14-15.04L150.14-15.04L150.14-15.04Q153.34-15.94 155.58-18.94L155.58-18.94L155.58-18.94Q157.82-21.95 157.82-25.47L157.82-25.47L157.82-25.47Q157.82-28.99 155.33-28.99L155.33-28.99L155.33-28.99Q153.54-28.99 152.13-27.01L152.13-27.01L152.13-27.01Q150.72-25.02 150.08-21.63L150.08-21.63L145.86 0L132.93 1.28L141.89-44.80L154.75-46.08L153.28-38.46L153.28-38.46Q152.32-33.09 151.04-30.34ZM185.54-3.07L185.54-3.07L193.47-44.80L206.46-46.08L204.48-36.29L204.48-36.29Q203.78-33.28 202.88-31.17L202.88-31.17L202.88-31.17Q204.29-32.96 207.36-33.66L207.36-33.66L207.36-33.66Q208.26-33.92 209.34-33.92L209.34-33.92L209.34-33.92Q215.30-33.92 218.56-30.30L218.56-30.30L218.56-30.30Q221.82-26.69 221.82-19.71L221.82-19.71L221.82-19.71Q221.82-10.62 216.64-4.93L216.64-4.93L216.64-4.93Q211.07 1.28 200.96 1.28L200.96 1.28L200.96 1.28Q193.98 1.28 188.74-1.02L188.74-1.02L188.74-1.02Q186.88-1.86 185.54-3.07ZM201.79-22.40L198.40-3.65L198.40-3.65Q199.74-2.50 201.41-2.50L201.41-2.50L201.41-2.50Q203.07-2.50 204.03-3.14L204.03-3.14L204.03-3.14Q204.99-3.78 205.70-5.06L205.70-5.06L205.70-5.06Q207.62-8.51 209.15-19.07L209.15-19.07L209.15-19.07Q209.60-22.08 209.60-25.09L209.60-25.09L209.60-25.09Q209.60-28.10 208.93-29.06L208.93-29.06L208.93-29.06Q208.26-30.02 206.98-30.02L206.98-30.02L206.98-30.02Q203.07-30.02 201.79-22.40L201.79-22.40ZM245.70-17.98L245.70-17.98L245.70-17.98Q248-22.08 248-26.24L248-26.24L248-26.24Q248-28.99 246.02-28.99L246.02-28.99L246.02-28.99Q244.48-28.99 242.88-26.37L242.88-26.37L242.88-26.37Q241.22-23.74 240.70-20.35L240.70-20.35L237.38 0L224.13 1.28L230.66-32.64L241.22-33.92L240.06-27.46L240.06-27.46Q243.20-33.92 250.24-33.92L250.24-33.92L250.24-33.92Q253.95-33.92 255.97-32L255.97-32L255.97-32Q257.98-30.08 257.98-26.14L257.98-26.14L257.98-26.14Q257.98-22.21 255.39-19.71L255.39-19.71L255.39-19.71Q252.80-17.22 248.38-17.22L248.38-17.22L248.38-17.22Q246.46-17.22 245.70-17.98ZM274.37-3.52L274.37-3.52L274.37-3.52Q272.38 1.28 266.05 1.28L266.05 1.28L266.05 1.28Q262.78 1.28 260.74-0.96L260.74-0.96L260.74-0.96Q259.01-2.94 259.01-4.93L259.01-4.93L259.01-4.93Q259.01-10.11 261.38-20.22L261.38-20.22L263.74-32.64L276.74-33.92L272.83-13.70L272.83-13.70Q271.74-8.96 271.74-7.30L271.74-7.30L271.74-7.30Q271.74-3.65 274.37-3.52ZM264.90-41.54L264.90-41.54L264.90-41.54Q264.90-44.03 266.98-45.38L266.98-45.38L266.98-45.38Q269.06-46.72 272.06-46.72L272.06-46.72L272.06-46.72Q275.07-46.72 276.90-45.38L276.90-45.38L276.90-45.38Q278.72-44.03 278.72-41.54L278.72-41.54L278.72-41.54Q278.72-39.04 276.70-37.76L276.70-37.76L276.70-37.76Q274.69-36.48 271.68-36.48L271.68-36.48L271.68-36.48Q268.67-36.48 266.78-37.76L266.78-37.76L266.78-37.76Q264.90-39.04 264.90-41.54ZM299.97-33.92L299.97-33.92L299.97-33.92Q302.27-33.92 304.06-33.41L304.06-33.41L304.06-33.41Q304.13-33.66 304.26-34.37L304.26-34.37L304.58-36.35L304.58-36.35Q304.83-37.63 305.22-39.74L305.22-39.74L306.24-44.80L318.98-46.08L311.87-8.96L311.87-8.96Q311.81-8.58 311.81-7.94L311.81-7.94L311.81-6.91L311.81-6.91Q311.81-5.50 312.51-4.45L312.51-4.45L312.51-4.45Q313.22-3.39 314.37-3.39L314.37-3.39L314.37-3.39Q313.09-0.38 309.18 0.90L309.18 0.90L309.18 0.90Q307.84 1.28 305.95 1.28L305.95 1.28L305.95 1.28Q304.06 1.28 302.34 0.29L302.34 0.29L302.34 0.29Q300.61-0.70 300.10-2.37L300.10-2.37L300.10-2.37Q299.07-0.70 297.02 0.29L297.02 0.29L297.02 0.29Q294.98 1.28 292 1.28L292 1.28L292 1.28Q289.02 1.28 286.56 0.51L286.56 0.51L286.56 0.51Q284.10-0.26 282.56-1.92L282.56-1.92L282.56-1.92Q279.74-5.18 279.74-12.61L279.74-12.61L279.74-12.61Q279.74-22.21 285.38-28.03L285.38-28.03L285.38-28.03Q291.01-33.92 299.97-33.92ZM299.52-30.08L299.52-30.08L299.52-30.08Q297.15-30.08 295.87-27.52L295.87-27.52L295.87-27.52Q294.59-24.96 293.28-18.62L293.28-18.62L293.28-18.62Q291.97-12.29 291.97-6.59L291.97-6.59L291.97-6.59Q291.97-2.69 294.27-2.69L294.27-2.69L294.27-2.69Q296.32-2.69 297.76-4.74L297.76-4.74L297.76-4.74Q299.20-6.78 299.78-10.18L299.78-10.18L303.23-28.93L303.23-28.93Q301.89-30.08 299.52-30.08ZM324.35-26.75L324.35-26.75L324.35-26.75Q326.53-29.82 329.82-31.87L329.82-31.87L329.82-31.87Q333.12-33.92 337.15-33.92L337.15-33.92L337.15-33.92Q341.18-33.92 343.10-32.64L343.10-32.64L355.65-33.92L351.30-9.34L351.30-9.34Q349.06 3.20 344.32 8.13L344.32 8.13L344.32 8.13Q339.78 12.80 330.94 12.80L330.94 12.80L330.94 12.80Q324.22 12.80 320.38 10.69L320.38 10.69L320.38 10.69Q316.54 8.58 316.54 5.06L316.54 5.06L316.54 5.06Q316.54 2.43 318.53 0.93L318.53 0.93L318.53 0.93Q320.51-0.58 323.58-0.58L323.58-0.58L323.58-0.58Q326.27-0.58 328.32 0.64L328.32 0.64L328.32 0.64Q329.54 1.28 330.11 2.18L330.11 2.18L330.11 2.18Q328.64 3.46 328.64 5.57L328.64 5.57L328.64 5.57Q328.64 8.32 331.20 8.32L331.20 8.32L331.20 8.32Q335.49 8.32 337.92-1.79L337.92-1.79L337.92-1.79Q338.62-4.54 339.20-7.30L339.20-7.30L339.20-7.30Q336.32-3.78 329.79-3.78L329.79-3.78L329.79-3.78Q325.25-3.78 322.62-5.95L322.62-5.95L322.62-5.95Q320-8.13 320-13.25L320-13.25L320-13.25Q320-16.45 321.09-20.06L321.09-20.06L321.09-20.06Q322.18-23.68 324.35-26.75ZM332.67-13.06L332.67-13.06L332.67-13.06Q332.67-8.70 334.91-8.70L334.91-8.70L334.91-8.70Q336.45-8.70 337.92-10.37L337.92-10.37L337.92-10.37Q339.07-11.71 339.52-13.70L339.52-13.70L342.78-30.14L342.78-30.14Q342.46-30.21 342.14-30.34L342.14-30.34L342.14-30.34Q341.50-30.59 340.67-30.59L340.67-30.59L340.67-30.59Q336.77-30.59 334.46-24.19L334.46-24.19L334.46-24.19Q332.67-19.20 332.67-13.06ZM384.06-10.82L384.06-10.82L384.06-10.82Q385.66-9.73 385.66-7.33L385.66-7.33L385.66-7.33Q385.66-4.93 384.45-3.39L384.45-3.39L384.45-3.39Q383.23-1.86 381.25-0.83L381.25-0.83L381.25-0.83Q377.15 1.28 372.74 1.28L372.74 1.28L372.74 1.28Q368.32 1.28 365.73 0.32L365.73 0.32L365.73 0.32Q363.14-0.64 361.41-2.43L361.41-2.43L361.41-2.43Q358.02-5.82 358.02-12.03L358.02-12.03L358.02-12.03Q358.02-21.70 363.26-27.58L363.26-27.58L363.26-27.58Q368.90-33.92 378.69-33.92L378.69-33.92L378.69-33.92Q384.77-33.92 387.78-31.36L387.78-31.36L387.78-31.36Q390.02-29.44 390.02-26.30L390.02-26.30L390.02-26.30Q390.02-15.04 370.56-15.04L370.56-15.04L370.56-15.04Q370.30-13.38 370.30-11.97L370.30-11.97L370.30-11.97Q370.30-9.02 371.62-7.90L371.62-7.90L371.62-7.90Q372.93-6.78 375.36-6.78L375.36-6.78L375.36-6.78Q377.79-6.78 380.38-7.90L380.38-7.90L380.38-7.90Q382.98-9.02 384.06-10.82ZM371.01-17.79L371.01-17.79L371.01-17.79Q375.55-17.79 378.18-20.61L378.18-20.61L378.18-20.61Q380.80-23.30 380.80-27.58L380.80-27.58L380.80-27.58Q380.80-29.06 380.26-29.86L380.26-29.86L380.26-29.86Q379.71-30.66 378.62-30.66L378.62-30.66L378.62-30.66Q377.54-30.66 376.61-30.24L376.61-30.24L376.61-30.24Q375.68-29.82 374.72-28.42L374.72-28.42L374.72-28.42Q372.35-25.22 371.01-17.79ZM436.80-26.62L436.80-26.62L436.80-26.62Q436.80-23.94 434.56-22.27L434.56-22.27L434.56-22.27Q432.32-20.61 428.67-20.61L428.67-20.61L428.67-20.61Q427.14-20.61 426.24-21.06L426.24-21.06L426.24-21.06Q426.94-22.72 427.17-24.80L427.17-24.80L427.17-24.80Q427.39-26.88 427.39-27.46L427.39-27.46L427.39-27.46Q427.39-30.14 425.54-30.14L425.54-30.14L425.54-30.14Q424.26-30.14 422.82-28.54L422.82-28.54L422.82-28.54Q421.38-26.94 420.16-24.45L420.16-24.45L420.16-24.45Q417.47-18.69 417.47-12.86L417.47-12.86L417.47-12.86Q417.47-9.66 418.69-8.22L418.69-8.22L418.69-8.22Q419.90-6.78 422.59-6.78L422.59-6.78L422.59-6.78Q426.30-6.78 429.25-9.86L429.25-9.86L429.25-9.86Q430.08-10.82 430.53-11.90L430.53-11.90L430.53-11.90Q432.96-10.62 432.96-7.10L432.96-7.10L432.96-7.10Q432.96-3.52 428.99-1.15L428.99-1.15L428.99-1.15Q424.90 1.28 418.37 1.28L418.37 1.28L418.37 1.28Q405.38 1.28 405.38-12.48L405.38-12.48L405.38-12.48Q405.38-22.53 411.07-28.29L411.07-28.29L411.07-28.29Q416.58-33.92 426.69-33.92L426.69-33.92L426.69-33.92Q436.80-33.92 436.80-26.62ZM458.56-17.98L458.56-17.98L458.56-17.98Q460.86-22.08 460.86-26.24L460.86-26.24L460.86-26.24Q460.86-28.99 458.88-28.99L458.88-28.99L458.88-28.99Q457.34-28.99 455.74-26.37L455.74-26.37L455.74-26.37Q454.08-23.74 453.57-20.35L453.57-20.35L450.24 0L436.99 1.28L443.52-32.64L454.08-33.92L452.93-27.46L452.93-27.46Q456.06-33.92 463.10-33.92L463.10-33.92L463.10-33.92Q466.82-33.92 468.83-32L468.83-32L468.83-32Q470.85-30.08 470.85-26.14L470.85-26.14L470.85-26.14Q470.85-22.21 468.26-19.71L468.26-19.71L468.26-19.71Q465.66-17.22 461.25-17.22L461.25-17.22L461.25-17.22Q459.33-17.22 458.56-17.98ZM485.82 1.28L485.82 1.28L485.82 1.28Q471.74 1.28 471.74-11.97L471.74-11.97L471.74-11.97Q471.74-21.38 476.93-27.46L476.93-27.46L476.93-27.46Q482.43-33.92 491.97-33.92L491.97-33.92L491.97-33.92Q498.88-33.92 502.40-30.72L502.40-30.72L502.40-30.72Q505.92-27.52 505.92-20.80L505.92-20.80L505.92-20.80Q505.92-10.56 500.42-4.61L500.42-4.61L500.42-4.61Q495.04 1.28 485.82 1.28ZM487.49-26.56L487.49-26.56L487.49-26.56Q486.72-24.83 486.11-22.24L486.11-22.24L486.11-22.24Q485.50-19.65 484.74-15.55L484.74-15.55L484.74-15.55Q483.97-11.46 483.97-6.40L483.97-6.40L483.97-6.40Q483.97-4.74 484.51-3.65L484.51-3.65L484.51-3.65Q485.06-2.56 486.53-2.56L486.53-2.56L486.53-2.56Q488.00-2.56 488.93-3.26L488.93-3.26L488.93-3.26Q489.86-3.97 490.56-5.63L490.56-5.63L490.56-5.63Q491.84-8.58 492.86-14.05L492.86-14.05L492.86-14.05Q493.89-19.52 493.98-21.89L493.98-21.89L493.98-21.89Q494.08-24.26 494.08-26.02L494.08-26.02L494.08-26.02Q494.08-27.78 493.57-28.93L493.57-28.93L493.57-28.93Q493.06-30.08 491.62-30.08L491.62-30.08L491.62-30.08Q490.18-30.08 489.22-29.18L489.22-29.18L489.22-29.18Q488.26-28.29 487.49-26.56ZM512.48-1.92L512.48-1.92L512.48-1.92Q510.98-3.58 510.30-6.21L510.30-6.21L510.30-6.21Q509.63-8.83 509.63-13.12L509.63-13.12L509.63-13.12Q509.63-17.41 511.10-21.31L511.10-21.31L511.10-21.31Q512.58-25.22 515.26-28.03L515.26-28.03L515.26-28.03Q520.77-33.92 529.86-33.92L529.86-33.92L529.86-33.92Q533.12-33.92 535.49-32.83L535.49-32.83L546.43-33.92L541.70-8.96L541.70-8.96Q541.50-8.19 541.50-6.78L541.50-6.78L541.50-6.78Q541.50-5.38 542.37-4.48L542.37-4.48L542.37-4.48Q543.23-3.58 544.51-3.46L544.51-3.46L544.51-3.46Q543.87-1.28 541.54 0L541.54 0L541.54 0Q539.20 1.28 536.58 1.28L536.58 1.28L536.58 1.28Q533.95 1.28 532.19 0.29L532.19 0.29L532.19 0.29Q530.43-0.70 529.92-2.37L529.92-2.37L529.92-2.37Q528.90-0.77 526.72 0.26L526.72 0.26L526.72 0.26Q524.54 1.28 521.63 1.28L521.63 1.28L521.63 1.28Q518.72 1.28 516.35 0.51L516.35 0.51L516.35 0.51Q513.98-0.26 512.48-1.92ZM525.98-27.90L525.98-27.90L525.98-27.90Q525.25-26.75 524.61-24.80L524.61-24.80L524.61-24.80Q523.97-22.85 522.91-17.63L522.91-17.63L522.91-17.63Q521.86-12.42 521.86-8.70L521.86-8.70L521.86-8.70Q521.86-4.99 522.43-3.90L522.43-3.90L522.43-3.90Q523.01-2.82 524.03-2.82L524.03-2.82L524.03-2.82Q526.08-2.82 527.58-4.77L527.58-4.77L527.58-4.77Q529.09-6.72 529.66-10.18L529.66-10.18L533.06-28.93L533.06-28.93Q531.71-30.08 530.14-30.08L530.14-30.08L530.14-30.08Q528.58-30.08 527.65-29.57L527.65-29.57L527.65-29.57Q526.72-29.06 525.98-27.90ZM550.91-6.40L550.91-6.40L550.91-6.40Q550.91-8.13 551.81-12.48L551.81-12.48L555.20-29.76L551.42-29.76L551.68-31.68L551.68-31.68Q559.36-33.98 566.78-39.62L566.78-39.62L569.86-39.62L568.32-32.64L573.31-32.64L572.74-29.76L567.81-29.76L564.54-12.48L564.54-12.48Q563.71-8.51 563.71-7.17L563.71-7.17L563.71-7.17Q563.71-4.10 566.40-3.46L566.40-3.46L566.40-3.46Q565.76-1.28 563.46 0L563.46 0L563.46 0Q561.15 1.28 557.89 1.28L557.89 1.28L557.89 1.28Q554.62 1.28 552.77-0.77L552.77-0.77L552.77-0.77Q550.91-2.82 550.91-6.40ZM588.35-3.52L588.35-3.52L588.35-3.52Q586.37 1.28 580.03 1.28L580.03 1.28L580.03 1.28Q576.77 1.28 574.72-0.96L574.72-0.96L574.72-0.96Q572.99-2.94 572.99-4.93L572.99-4.93L572.99-4.93Q572.99-10.11 575.36-20.22L575.36-20.22L577.73-32.64L590.72-33.92L586.82-13.70L586.82-13.70Q585.73-8.96 585.73-7.30L585.73-7.30L585.73-7.30Q585.73-3.65 588.35-3.52ZM578.88-41.54L578.88-41.54L578.88-41.54Q578.88-44.03 580.96-45.38L580.96-45.38L580.96-45.38Q583.04-46.72 586.05-46.72L586.05-46.72L586.05-46.72Q589.06-46.72 590.88-45.38L590.88-45.38L590.88-45.38Q592.70-44.03 592.70-41.54L592.70-41.54L592.70-41.54Q592.70-39.04 590.69-37.76L590.69-37.76L590.69-37.76Q588.67-36.48 585.66-36.48L585.66-36.48L585.66-36.48Q582.66-36.48 580.77-37.76L580.77-37.76L580.77-37.76Q578.88-39.04 578.88-41.54ZM596.58-1.92L596.58-1.92L596.58-1.92Q595.07-3.58 594.40-6.21L594.40-6.21L594.40-6.21Q593.73-8.83 593.73-13.12L593.73-13.12L593.73-13.12Q593.73-17.41 595.20-21.31L595.20-21.31L595.20-21.31Q596.67-25.22 599.36-28.03L599.36-28.03L599.36-28.03Q604.86-33.92 613.95-33.92L613.95-33.92L613.95-33.92Q617.22-33.92 619.58-32.83L619.58-32.83L630.53-33.92L625.79-8.96L625.79-8.96Q625.60-8.19 625.60-6.78L625.60-6.78L625.60-6.78Q625.60-5.38 626.46-4.48L626.46-4.48L626.46-4.48Q627.33-3.58 628.61-3.46L628.61-3.46L628.61-3.46Q627.97-1.28 625.63 0L625.63 0L625.63 0Q623.30 1.28 620.67 1.28L620.67 1.28L620.67 1.28Q618.05 1.28 616.29 0.29L616.29 0.29L616.29 0.29Q614.53-0.70 614.02-2.37L614.02-2.37L614.02-2.37Q612.99-0.77 610.82 0.26L610.82 0.26L610.82 0.26Q608.64 1.28 605.73 1.28L605.73 1.28L605.73 1.28Q602.82 1.28 600.45 0.51L600.45 0.51L600.45 0.51Q598.08-0.26 596.58-1.92ZM610.08-27.90L610.08-27.90L610.08-27.90Q609.34-26.75 608.70-24.80L608.70-24.80L608.70-24.80Q608.06-22.85 607.01-17.63L607.01-17.63L607.01-17.63Q605.95-12.42 605.95-8.70L605.95-8.70L605.95-8.70Q605.95-4.99 606.53-3.90L606.53-3.90L606.53-3.90Q607.10-2.82 608.13-2.82L608.13-2.82L608.13-2.82Q610.18-2.82 611.68-4.77L611.68-4.77L611.68-4.77Q613.18-6.72 613.76-10.18L613.76-10.18L617.15-28.93L617.15-28.93Q615.81-30.08 614.24-30.08L614.24-30.08L614.24-30.08Q612.67-30.08 611.74-29.57L611.74-29.57L611.74-29.57Q610.82-29.06 610.08-27.90Z" fill="#eb6c6c"></path></g></g><style>text {
  font-size: 64px;
  font-family: Arial Black;
  dominant-baseline: central;
  text-anchor: middle;
}</style></svg>